HIERARCHY
ROOT Hips
{
    OFFSET 0.000000 0.000000 0.000000
    CHANNELS 6 Xposition Yposition Zposition Zrotation Xrotation Yrotation
    JOINT Spine
    {
        OFFSET -0.000000 7.750029 0.000000
        CHANNELS 3 Zrotation Xrotation Yrotation
        JOINT Spine1
        {
            OFFSET -0.000000 19.767460 0.000000
            CHANNELS 3 Zrotation Xrotation Yrotation
            JOINT Neck
            {
                OFFSET -0.000000 19.686279 1.789662
                CHANNELS 3 Zrotation Xrotation Yrotation
                JOINT Head
                {
                    OFFSET -0.000000 13.231757 -1.890251
                    CHANNELS 3 Zrotation Xrotation Yrotation
                    End Site
                    {
                        OFFSET -0.000000 23.628138 0.000000
                    }
                }
            }
            JOINT LeftShoulder
            {
                OFFSET 3.736819 16.910755 -0.280982
                CHANNELS 3 Zrotation Xrotation Yrotation
                JOINT LeftArm
                {
                    OFFSET 13.626117 0.000000 0.000000
                    CHANNELS 3 Zrotation Xrotation Yrotation
                    JOINT LeftForeArm
                    {
                        OFFSET 31.364786 0.000000 0.000000
                        CHANNELS 3 Zrotation Xrotation Yrotation
                        JOINT LeftHand
                        {
                            OFFSET 23.389509 0.000000 0.000000
                            CHANNELS 3 Zrotation Xrotation Yrotation
                            End Site
                            {
                                OFFSET 14.176883 0.000000 0.000000
                            }
                        }
                    }
                }
            }
            JOINT RightShoulder
            {
                OFFSET -3.821718 16.910755 -0.280982
                CHANNELS 3 Zrotation Xrotation Yrotation
                JOINT RightArm
                {
                    OFFSET -13.626117 0.000000 0.000000
                    CHANNELS 3 Zrotation Xrotation Yrotation
                    JOINT RightForeArm
                    {
                        OFFSET -31.364786 0.000000 0.000000
                        CHANNELS 3 Zrotation Xrotation Yrotation
                        JOINT RightHand
                        {
                            OFFSET -23.389509 0.000000 0.000000
                            CHANNELS 3 Zrotation Xrotation Yrotation
                            End Site
                            {
                                OFFSET -14.176883 0.000000 0.000000
                            }
                        }
                    }
                }
            }
        }
    }
    JOINT LeftUpLeg
    {
        OFFSET 9.451255 0.000000 0.000000
        CHANNELS 3 Zrotation Xrotation Yrotation
        JOINT LeftLeg
        {
            OFFSET -0.000000 -41.898624 0.000000
            CHANNELS 3 Zrotation Xrotation Yrotation
            JOINT LeftFoot
            {
                OFFSET -0.000000 -38.481331 0.000000
                CHANNELS 3 Zrotation Xrotation Yrotation
                JOINT LeftToeBase
                {
                    OFFSET -0.000000 -6.143315 14.176883
                    CHANNELS 3 Zrotation Xrotation Yrotation
                    End Site
                    {
                        OFFSET -0.000000 0.000000 3.780502
                    }
                }
            }
        }
    }
    JOINT RightUpLeg
    {
        OFFSET -9.451255 0.000000 0.000000
        CHANNELS 3 Zrotation Xrotation Yrotation
        JOINT RightLeg
        {
            OFFSET -0.000000 -41.898624 0.000000
            CHANNELS 3 Zrotation Xrotation Yrotation
            JOINT RightFoot
            {
                OFFSET -0.000000 -38.481331 0.000000
                CHANNELS 3 Zrotation Xrotation Yrotation
                JOINT RightToeBase
                {
                    OFFSET -0.000000 -6.143315 14.176883
                    CHANNELS 3 Zrotation Xrotation Yrotation
                    End Site
                    {
                        OFFSET -0.000000 0.000000 3.780502
                    }
                }
            }
        }
    }
}
MOTION
Frames:    4
Frame Time:    0.010000
2.883343    91.481491    130.760147    -0.215484    2.306628    177.097809    0.638679    -3.250581    1.181372    1.838648    -0.504770    1.171401    -6.503518    38.858635    3.661752    -0.855715    -25.908787    2.001920    7.659204    5.086727    -4.210508    -78.712540    49.366547    -5.417027    7.907050    -13.808755    -15.252724    -14.727708    -12.175751    -4.760051    -8.574082    8.395305    -0.131665    75.736046    38.722301    11.555859    -6.435506    -14.744243    9.056531    12.313241    -14.075645    1.669546    1.452895    7.513461    0.771269    -1.092633    -0.896235    1.789346    -3.045655    -4.340203    15.920871    0.000000    0.000000    0.000000    -3.296392    5.113231    6.713375    1.958094    4.206629    3.750476    1.730398    -7.115924    -19.165087    0.000000    0.000000    0.000000    
2.879712    91.482231    130.761658    -0.216236    2.301147    177.086334    0.642008    -3.239554    1.178373    1.858197    -0.458714    1.167725    -6.499345    38.878426    3.613954    -0.894733    -25.877525    1.937931    7.655290    5.101397    -4.203864    -78.715263    49.380058    -5.427778    7.972037    -13.912146    -15.269947    -14.945401    -12.268699    -4.700798    -8.597091    8.401905    -0.163960    75.749008    38.768242    11.565772    -6.459197    -14.766635    9.073030    12.306665    -14.079227    1.824855    1.407740    7.503879    0.921108    -1.008123    -0.885314    1.655572    -3.121798    -4.355702    15.920512    0.000000    0.000000    0.000000    -3.294552    5.087965    6.704966    1.943940    4.235350    3.784071    1.591075    -7.107685    -19.206629    0.000000    0.000000    0.000000    
2.874302    91.483116    130.768417    -0.216927    2.288781    177.064789    0.651720    -3.238818    1.177293    1.867336    -0.397495    1.165357    -6.343274    38.921173    3.590032    -1.193059    -25.883921    1.838372    7.649839    5.136012    -4.240729    -78.718117    49.335468    -5.435679    8.013659    -13.888215    -15.222743    -15.090272    -12.224884    -4.790349    -8.588664    8.374745    -0.191746    75.732849    38.812786    11.551432    -6.443966    -14.895818    9.170863    12.245625    -14.210758    1.774829    1.355530    7.489044    1.085298    -0.922787    -0.896312    1.666718    -3.143901    -4.318222    15.798980    0.000000    0.000000    0.000000    -3.313833    5.052236    6.731708    1.979601    4.273468    3.802906    1.653464    -7.122117    -19.167673    0.000000    0.000000    0.000000    
2.878429    91.484383    130.776138    -0.208901    2.269441    177.053741    0.642408    -3.242591    1.170658    1.919968    -0.331840    1.158079    -6.413353    39.292809    3.744362    -1.284344    -26.451488    1.916986    7.663157    5.312753    -4.422942    -78.674042    49.136364    -5.526892    7.690528    -14.094653    -15.401412    -14.188632    -12.528833    -4.558176    -8.611924    8.378685    -0.207301    75.723312    38.871693    11.572008    -6.486097    -14.966617    9.213300    12.320552    -14.269725    1.825342    1.404487    7.440932    0.988464    -0.995667    -0.839399    1.649308    -3.092671    -4.347570    15.891087    0.000000    0.000000    0.000000    -3.290256    5.012136    6.737795    1.949998    4.306037    3.831848    1.607285    -7.114080    -19.251694    0.000000    0.000000    0.000000    
